# xmcd
#
# Track frame offsets: 
#        150
#        15270
#        30007
#        44382
#        59712
#        73300
#        86682
#        100015
#        114837
#        126750
#        139482
#        150407
#        163707
#        175767
#        188610
#        201002
#        214445
#        226797
#        240150
#        251612
#
# Disc length: 3545 seconds
#
# Revision: 8
# Processed by: cddbd v1.5.2PL0 Copyright (c) Steve Scherf et al.
# Submitted via: ExactAudioCopy v1.1
#
DISCID=010dd714
DTITLE=Various Artist - News and The Blues - Telling It Like It Is (Roo
DTITLE=ts N' Blues)
DYEAR=1990
DGENRE=Blues
TTITLE0=Bessie Smith - Back Water Blues (mono)
TTITLE1=Victoria Spivey - Dope Head Blues (mono)
TTITLE2=Blind Willie Johnson - If I Had My Way, I'd Tear The Building 
TTITLE2=Down (mono)
TTITLE3=Mississippi John Hurt - Frankie (mono)
TTITLE4=Blind Willie Johnson - God Moves On The Water (mono)
TTITLE5=Lucille Bogan - Groceries On The Shelf (mono)
TTITLE6=Charlie Patton - '34 Blues (mono)
TTITLE7=Casey Bill Weldon - W.P.A. Blues (mono)
TTITLE8=Big Bill Broonzy - Unemployment Stomp (mono)
TTITLE9=Alfred Fields - '29 Blues (mono)
TTITLE10=Jack Kelly - Joe Louis Special (mono)
TTITLE11=Blind Boy Fuller - Three Ball Blues (mono)
TTITLE12=Bukka White - Parchman Farm Blues (mono)
TTITLE13=Bill Gaither - Life Of Leroy Carr (mono)
TTITLE14=Memphis Minnie - Ma Rainey (mono)
TTITLE15=Peter Cleighton - Moonshine Man Blues (mono)
TTITLE16=Big Bill Broonzy - In The Army Now (mono)
TTITLE17=Sister O. M. Terrell - The Gambling Man (mono)
TTITLE18=Homer Harris - Atomic Bomb Blues (mono)
TTITLE19=Willie 'Long Time' Smith - Homeless Blues (mono)
EXTD=LABEL =CBS Records Inc.\nID =CK46217\nUPC =07464-46217-2\nCOPY
EXTD=RIGHT =1990
EXTT0=
EXTT1=
EXTT2=
EXTT3=
EXTT4=
EXTT5=
EXTT6=
EXTT7=
EXTT8=
EXTT9=
EXTT10=
EXTT11=
EXTT12=
EXTT13=
EXTT14=
EXTT15=
EXTT16=
EXTT17=
EXTT18=
EXTT19=
PLAYORDER=
